<svg width="190" height="69" viewBox="0 0 190 69" fill="none" xmlns="http://www.w3.org/2000/svg">
<path d="M34.7494 0H22.3348C11.7469 14.5632 7.3316 21.9128 2.41019 33.4385C-0.0827982 39.2769 -2.1878 42.4615 4.40266 49.4942C12.9856 57.4558 29.0804 56.4308 56.3599 54.6692V48.1673C26.0014 49.5546 13.8839 48.8977 12.9856 41.6654C11.7338 35.3267 17.1796 25.5115 34.7494 0Z" fill="#1F2B72"/>
<path d="M44.8649 13.0039H32.4503C21.8624 27.5671 17.4471 34.9167 12.5257 46.4424C10.0327 52.2808 7.92767 55.4654 14.5181 62.4981C23.101 70.4597 39.1959 69.4347 66.4754 67.6731V61.1712C36.1169 62.5585 23.9994 61.9016 23.101 54.6693C21.8493 48.3306 27.2951 38.5154 44.8649 13.0039Z" fill="#5CB9D2"/>
<path d="M88.6509 52.9819H82.9419C83.3514 48.381 83.5562 44.0812 83.5562 40.0825C83.5562 36.4692 83.4176 32.9945 83.1406 29.6582C81.0329 29.6823 78.7324 29.7666 76.2393 29.9111C75.9261 29.2969 75.7695 28.8091 75.7695 28.4478C75.7695 28.0864 75.9261 27.5986 76.2393 26.9844C79.5876 27.1771 82.7673 27.2734 85.7783 27.2734C88.8014 27.2734 91.9871 27.1771 95.3354 26.9844C95.6486 27.6227 95.8052 28.1226 95.8052 28.4839C95.8052 28.8452 95.6426 29.321 95.3174 29.9111C92.8844 29.7666 90.59 29.6823 88.4341 29.6582C88.1691 33.0788 88.0366 36.5776 88.0366 40.1548C88.0366 44.1896 88.2414 48.4653 88.6509 52.9819ZM107.368 53.3252C105.657 53.3252 104.11 52.8675 102.725 51.9521C101.352 51.0247 100.268 49.8143 99.4727 48.3208C98.6777 46.8273 98.2803 45.1833 98.2803 43.3887C98.2803 41.5941 98.6777 39.95 99.4727 38.4565C100.268 36.9631 101.352 35.7586 102.725 34.8433C104.11 33.9159 105.657 33.4521 107.368 33.4521C109.078 33.4521 110.62 33.9159 111.993 34.8433C113.378 35.7586 114.468 36.9631 115.263 38.4565C116.058 39.95 116.455 41.5941 116.455 43.3887C116.455 45.1833 116.058 46.8273 115.263 48.3208C114.468 49.8143 113.378 51.0247 111.993 51.9521C110.62 52.8675 109.078 53.3252 107.368 53.3252ZM107.368 51.0308C107.97 51.0308 108.566 50.7176 109.156 50.0913C109.746 49.453 110.24 48.5436 110.638 47.3633C111.035 46.1829 111.234 44.8581 111.234 43.3887C111.234 41.9313 111.035 40.6125 110.638 39.4321C110.24 38.2397 109.746 37.3304 109.156 36.7041C108.566 36.0778 107.97 35.7646 107.368 35.7646C106.765 35.7646 106.169 36.0778 105.579 36.7041C104.989 37.3304 104.495 38.2397 104.098 39.4321C103.712 40.6125 103.52 41.9313 103.52 43.3887C103.52 44.8581 103.712 46.1829 104.098 47.3633C104.495 48.5436 104.989 49.453 105.579 50.0913C106.169 50.7176 106.765 51.0308 107.368 51.0308ZM136.834 53.0361C135.039 52.9036 133.124 52.8193 131.089 52.7832L131.197 51.627C131.149 51.627 130.685 51.8438 129.806 52.2773C128.939 52.7109 127.969 52.9277 126.897 52.9277C125.536 52.9277 124.404 52.717 123.501 52.2954C122.61 51.8739 121.917 51.3319 121.423 50.6694C120.93 49.995 120.58 49.2723 120.375 48.5015C120.171 47.7186 120.038 46.9478 119.978 46.189C119.918 45.4302 119.888 44.7256 119.888 44.0752C119.888 40.7028 119.671 37.2642 119.237 33.7593C121.02 33.8918 122.935 33.9821 124.982 34.0303C124.585 38.1133 124.386 41.1243 124.386 43.0635C124.398 44.4727 124.555 45.7373 124.856 46.8574C125.157 47.9775 125.567 48.8327 126.084 49.4229C126.602 50.013 127.174 50.3081 127.801 50.3081C128.186 50.3081 128.608 50.1274 129.065 49.7661C129.523 49.3927 129.981 48.8628 130.438 48.1763C130.896 47.4897 131.282 46.755 131.595 45.9722C131.643 45.2254 131.667 44.3763 131.667 43.4248C131.667 40.9557 131.468 37.8242 131.071 34.0303C133.13 33.9941 135.051 33.9098 136.834 33.7773C136.388 37.1979 136.166 40.4137 136.166 43.4248C136.166 46.4359 136.388 49.6396 136.834 53.0361ZM140.23 53.0361C140.676 49.6035 140.899 46.3817 140.899 43.3706C140.899 40.3595 140.676 37.1558 140.23 33.7593C142.037 33.8918 143.958 33.9821 145.994 34.0303L145.958 34.6987C146.909 34.1808 147.818 33.9219 148.686 33.9219C149.637 33.9219 150.468 34.1025 151.179 34.4639C151.889 34.8132 152.479 35.2347 152.949 35.7285C153.431 36.2223 153.816 36.7161 154.105 37.21C154.395 37.6917 154.714 38.3602 155.063 39.2153C153.148 38.9865 151.6 38.8239 150.42 38.7275C150.035 37.8724 149.649 37.2882 149.264 36.9751C148.878 36.6619 148.463 36.5054 148.017 36.5054C147.535 36.5054 147.084 36.7583 146.662 37.2642C146.241 37.758 145.873 38.4385 145.56 39.3057C145.452 40.8353 145.397 42.2746 145.397 43.6235C145.397 44.1414 145.416 44.9604 145.452 46.0806C145.5 47.2007 145.681 49.4289 145.994 52.7651C143.934 52.8133 142.013 52.9036 140.23 53.0361ZM164.421 53.1445C163.169 53.1445 161.958 52.9398 160.79 52.5303C159.622 52.1087 158.622 51.4824 157.791 50.6514C156.96 49.8083 156.334 48.5436 155.912 46.8574C157.586 46.9899 159.206 47.0742 160.772 47.1104C161.121 48.4593 161.615 49.4108 162.253 49.9648C162.904 50.5068 163.639 50.7778 164.458 50.7778C165.156 50.7778 165.776 50.5851 166.318 50.1997C166.872 49.8022 167.312 49.3024 167.637 48.7002C167.962 48.0859 168.125 47.5018 168.125 46.9478C168.125 46.3335 167.98 45.8638 167.691 45.5386C167.414 45.2013 166.957 44.9062 166.318 44.6533C165.692 44.4004 164.873 44.1414 163.861 43.8765C162.416 43.479 161.169 43.0575 160.122 42.6118C159.074 42.1541 158.255 41.6061 157.665 40.9678C157.086 40.3294 156.797 39.5526 156.797 38.6372C156.797 37.8302 157.08 37.0534 157.646 36.3066C158.213 35.5599 159.032 34.9517 160.104 34.4819C161.188 34.0122 162.482 33.7773 163.988 33.7773C165.048 33.7773 166.108 33.9279 167.167 34.229C168.227 34.5301 169.143 35.0119 169.914 35.6743C170.696 36.3247 171.22 37.3665 171.485 38.7998C169.859 38.6673 168.276 38.583 166.734 38.5469C166.565 37.6436 166.24 37.0233 165.758 36.686C165.289 36.3368 164.698 36.1621 163.988 36.1621C163.241 36.1621 162.615 36.3608 162.109 36.7583C161.603 37.1437 161.35 37.5653 161.35 38.0229C161.35 38.5168 161.603 38.8901 162.109 39.1431C162.627 39.396 163.62 39.7152 165.09 40.1006L165.198 40.1367C167.595 40.7148 169.468 41.582 170.817 42.7383C172.178 43.8825 172.858 45.2495 172.858 46.8394C172.858 48.1401 172.443 49.2663 171.612 50.2178C170.793 51.1572 169.739 51.8799 168.45 52.3857C167.174 52.8916 165.831 53.1445 164.421 53.1445Z" fill="white"/>
</svg>
